<svg width="167" height="43" viewBox="0 0 167 43" fill="none" xmlns="http://www.w3.org/2000/svg">
<rect y="24.7021" width="9.22652" height="9.14894" rx="4.57447" fill="#302F2D"/>
<rect x="23.0664" y="24.7021" width="9.22652" height="9.14894" rx="4.57447" fill="#302F2D"/>
<rect x="8.30396" y="15.5527" width="15.6851" height="9.14894" rx="4.57447" fill="#302F2D"/>
<path d="M39.4709 20.3993C39.4709 19.0196 39.8068 17.7589 40.4785 16.6171C41.1742 15.4516 42.0977 14.5357 43.2492 13.8697C44.4247 13.1799 45.7081 12.835 47.0994 12.835H53.0367C54.4281 12.835 55.6995 13.1799 56.8509 13.8697C58.0264 14.5357 58.95 15.4516 59.6217 16.6171C60.3173 17.7589 60.6652 19.0196 60.6652 20.3993V33.851H54.0802V20.3993C54.0802 20.1139 53.9723 19.876 53.7564 19.6857C53.5645 19.4716 53.3246 19.3646 53.0367 19.3646H47.0994C46.8116 19.3646 46.5597 19.4716 46.3438 19.6857C46.1519 19.876 46.0559 20.1139 46.0559 20.3993V33.851H39.4709V20.3993Z" fill="#302F2D"/>
<path d="M69.7296 27.3214H75.6669C75.9548 27.3214 76.1947 27.2262 76.3866 27.0359C76.6025 26.8219 76.7104 26.5721 76.7104 26.2866V20.3993C76.7104 20.1139 76.6025 19.876 76.3866 19.6857C76.1947 19.4716 75.9548 19.3646 75.6669 19.3646H69.7296C69.4418 19.3646 69.1899 19.4716 68.974 19.6857C68.7821 19.876 68.6861 20.1139 68.6861 20.3993V37.8472H62.1011V20.3993C62.1011 19.0196 62.437 17.7589 63.1087 16.6171C63.8044 15.4516 64.7279 14.5357 65.8794 13.8697C67.0549 13.1799 68.3383 12.835 69.7296 12.835H75.6669C77.0583 12.835 78.3297 13.1799 79.4811 13.8697C80.6566 14.5357 81.5802 15.4516 82.2519 16.6171C82.9475 17.7589 83.2954 19.0196 83.2954 20.3993V26.2866C83.2954 27.6663 82.9475 28.9389 82.2519 30.1045C81.5802 31.2463 80.6566 32.1621 79.4811 32.8519C78.3297 33.518 77.0583 33.851 75.6669 33.851H69.7296V27.3214Z" fill="#302F2D"/>
<path d="M98.262 12.835C99.6533 12.835 100.925 13.1799 102.076 13.8697C103.252 14.5357 104.175 15.4516 104.847 16.6171C105.543 17.7589 105.89 19.0196 105.89 20.3993V26.2866C105.89 27.6663 105.543 28.9389 104.847 30.1045C104.175 31.2463 103.252 32.1621 102.076 32.8519C100.925 33.518 99.6533 33.851 98.262 33.851H92.3607C90.9693 33.851 89.6859 33.518 88.5105 32.8519C87.359 32.1621 86.4354 31.2463 85.7397 30.1045C85.0441 28.9389 84.6962 27.6663 84.6962 26.2866V20.3993C84.6962 19.0196 85.0441 17.7589 85.7397 16.6171C86.4354 15.4516 87.359 14.5357 88.5105 13.8697C89.6859 13.1799 90.9693 12.835 92.3607 12.835H98.262ZM92.3607 19.3646C92.0728 19.3646 91.8209 19.4716 91.605 19.6857C91.3891 19.876 91.2812 20.1139 91.2812 20.3993V26.2866C91.2812 26.5721 91.3891 26.8219 91.605 27.0359C91.8209 27.2262 92.0728 27.3214 92.3607 27.3214H98.262C98.5498 27.3214 98.7897 27.2262 98.9816 27.0359C99.1975 26.8219 99.3055 26.5721 99.3055 26.2866V20.3993C99.3055 20.1139 99.1975 19.876 98.9816 19.6857C98.7897 19.4716 98.5498 19.3646 98.262 19.3646H92.3607Z" fill="#302F2D"/>
<path d="M114.991 33.851C113.6 33.851 112.316 33.518 111.141 32.8519C109.965 32.1621 109.03 31.2463 108.334 30.1045C107.662 28.9389 107.326 27.6663 107.326 26.2866V20.3993C107.326 19.0196 107.662 17.7589 108.334 16.6171C109.03 15.4516 109.965 14.5357 111.141 13.8697C112.316 13.1799 113.6 12.835 114.991 12.835H125.246V19.3646H114.991C114.679 19.3646 114.415 19.4716 114.199 19.6857C114.007 19.876 113.911 20.1139 113.911 20.3993V26.2866C113.911 26.5721 114.007 26.8219 114.199 27.0359C114.415 27.2262 114.679 27.3214 114.991 27.3214H125.246V33.851H114.991Z" fill="#302F2D"/>
<path d="M126.472 12.835H143.852V19.3646H138.454V33.851H131.869V19.3646H126.472V12.835Z" fill="#302F2D"/>
<path d="M158.597 12.835C159.989 12.835 161.26 13.1799 162.412 13.8697C163.587 14.5357 164.511 15.4516 165.182 16.6171C165.878 17.7589 166.226 19.0196 166.226 20.3993V26.2866C166.226 27.6663 165.878 28.9389 165.182 30.1045C164.511 31.2463 163.587 32.1621 162.412 32.8519C161.26 33.518 159.989 33.851 158.597 33.851H152.696C151.305 33.851 150.021 33.518 148.846 32.8519C147.694 32.1621 146.771 31.2463 146.075 30.1045C145.38 28.9389 145.032 27.6663 145.032 26.2866V20.3993C145.032 19.0196 145.38 17.7589 146.075 16.6171C146.771 15.4516 147.694 14.5357 148.846 13.8697C150.021 13.1799 151.305 12.835 152.696 12.835H158.597ZM152.696 19.3646C152.408 19.3646 152.156 19.4716 151.941 19.6857C151.725 19.876 151.617 20.1139 151.617 20.3993V26.2866C151.617 26.5721 151.725 26.8219 151.941 27.0359C152.156 27.2262 152.408 27.3214 152.696 27.3214H158.597C158.885 27.3214 159.125 27.2262 159.317 27.0359C159.533 26.8219 159.641 26.5721 159.641 26.2866V20.3993C159.641 20.1139 159.533 19.876 159.317 19.6857C159.125 19.4716 158.885 19.3646 158.597 19.3646H152.696Z" fill="#302F2D"/>
</svg>
