<svg width="105" height="27" viewBox="0 0 105 27" fill="none" xmlns="http://www.w3.org/2000/svg">
<rect y="15.5107" width="5.8011" height="5.74468" rx="2.87234" fill="#302F2D"/>
<rect x="14.5029" y="15.5107" width="5.8011" height="5.74468" rx="2.87234" fill="#302F2D"/>
<rect x="5.22119" y="9.76562" width="9.86188" height="5.74468" rx="2.87234" fill="#302F2D"/>
<path d="M24.8169 12.8093C24.8169 11.943 25.0281 11.1514 25.4504 10.4344C25.8878 9.70255 26.4685 9.12751 27.1924 8.70929C27.9315 8.27615 28.7384 8.05957 29.6132 8.05957H33.3463C34.2211 8.05957 35.0205 8.27615 35.7444 8.70929C36.4835 9.12751 37.0642 9.70255 37.4865 10.4344C37.9239 11.1514 38.1426 11.943 38.1426 12.8093V21.2557H34.0024V12.8093C34.0024 12.63 33.9345 12.4807 33.7987 12.3612C33.6781 12.2268 33.5273 12.1595 33.3463 12.1595H29.6132C29.4323 12.1595 29.2739 12.2268 29.1381 12.3612C29.0175 12.4807 28.9571 12.63 28.9571 12.8093V21.2557H24.8169V12.8093Z" fill="#302F2D"/>
<path d="M43.8418 17.1557H47.5748C47.7558 17.1557 47.9067 17.096 48.0273 16.9765C48.1631 16.842 48.2309 16.6852 48.2309 16.506V12.8093C48.2309 12.63 48.1631 12.4807 48.0273 12.3612C47.9067 12.2268 47.7558 12.1595 47.5748 12.1595H43.8418C43.6608 12.1595 43.5025 12.2268 43.3667 12.3612C43.246 12.4807 43.1857 12.63 43.1857 12.8093V23.765H39.0455V12.8093C39.0455 11.943 39.2566 11.1514 39.6789 10.4344C40.1163 9.70255 40.697 9.12751 41.421 8.70929C42.1601 8.27615 42.967 8.05957 43.8418 8.05957H47.5748C48.4496 8.05957 49.249 8.27615 49.973 8.70929C50.7121 9.12751 51.2928 9.70255 51.7151 10.4344C52.1525 11.1514 52.3712 11.943 52.3712 12.8093V16.506C52.3712 17.3723 52.1525 18.1714 51.7151 18.9032C51.2928 19.6202 50.7121 20.1952 49.973 20.6284C49.249 21.0466 48.4496 21.2557 47.5748 21.2557H43.8418V17.1557Z" fill="#302F2D"/>
<path d="M61.7813 8.05957C62.6561 8.05957 63.4555 8.27615 64.1795 8.70929C64.9185 9.12751 65.4992 9.70255 65.9216 10.4344C66.359 11.1514 66.5777 11.943 66.5777 12.8093V16.506C66.5777 17.3723 66.359 18.1714 65.9216 18.9032C65.4992 19.6202 64.9185 20.1952 64.1795 20.6284C63.4555 21.0466 62.6561 21.2557 61.7813 21.2557H58.0709C57.1961 21.2557 56.3892 21.0466 55.6501 20.6284C54.9261 20.1952 54.3454 19.6202 53.908 18.9032C53.4706 18.1714 53.2519 17.3723 53.2519 16.506V12.8093C53.2519 11.943 53.4706 11.1514 53.908 10.4344C54.3454 9.70255 54.9261 9.12751 55.6501 8.70929C56.3892 8.27615 57.1961 8.05957 58.0709 8.05957H61.7813ZM58.0709 12.1595C57.8899 12.1595 57.7316 12.2268 57.5958 12.3612C57.4601 12.4807 57.3922 12.63 57.3922 12.8093V16.506C57.3922 16.6852 57.4601 16.842 57.5958 16.9765C57.7316 17.096 57.8899 17.1557 58.0709 17.1557H61.7813C61.9623 17.1557 62.1131 17.096 62.2338 16.9765C62.3695 16.842 62.4374 16.6852 62.4374 16.506V12.8093C62.4374 12.63 62.3695 12.4807 62.2338 12.3612C62.1131 12.2268 61.9623 12.1595 61.7813 12.1595H58.0709Z" fill="#302F2D"/>
<path d="M72.2995 21.2557C71.4247 21.2557 70.6177 21.0466 69.8787 20.6284C69.1396 20.1952 68.5514 19.6202 68.114 18.9032C67.6917 18.1714 67.4805 17.3723 67.4805 16.506V12.8093C67.4805 11.943 67.6917 11.1514 68.114 10.4344C68.5514 9.70255 69.1396 9.12751 69.8787 8.70929C70.6177 8.27615 71.4247 8.05957 72.2995 8.05957H78.7474V12.1595H72.2995C72.1034 12.1595 71.9375 12.2268 71.8018 12.3612C71.6811 12.4807 71.6208 12.63 71.6208 12.8093V16.506C71.6208 16.6852 71.6811 16.842 71.8018 16.9765C71.9375 17.096 72.1034 17.1557 72.2995 17.1557H78.7474V21.2557H72.2995Z" fill="#302F2D"/>
<path d="M79.5181 8.05957H90.4456V12.1595H87.0519V21.2557H82.9117V12.1595H79.5181V8.05957Z" fill="#302F2D"/>
<path d="M99.7168 8.05957C100.592 8.05957 101.391 8.27615 102.115 8.70929C102.854 9.12751 103.435 9.70255 103.857 10.4344C104.294 11.1514 104.513 11.943 104.513 12.8093V16.506C104.513 17.3723 104.294 18.1714 103.857 18.9032C103.435 19.6202 102.854 20.1952 102.115 20.6284C101.391 21.0466 100.592 21.2557 99.7168 21.2557H96.0064C95.1316 21.2557 94.3247 21.0466 93.5856 20.6284C92.8616 20.1952 92.2809 19.6202 91.8435 18.9032C91.4061 18.1714 91.1874 17.3723 91.1874 16.506V12.8093C91.1874 11.943 91.4061 11.1514 91.8435 10.4344C92.2809 9.70255 92.8616 9.12751 93.5856 8.70929C94.3247 8.27615 95.1316 8.05957 96.0064 8.05957H99.7168ZM96.0064 12.1595C95.8254 12.1595 95.667 12.2268 95.5313 12.3612C95.3955 12.4807 95.3277 12.63 95.3277 12.8093V16.506C95.3277 16.6852 95.3955 16.842 95.5313 16.9765C95.667 17.096 95.8254 17.1557 96.0064 17.1557H99.7168C99.8978 17.1557 100.049 17.096 100.169 16.9765C100.305 16.842 100.373 16.6852 100.373 16.506V12.8093C100.373 12.63 100.305 12.4807 100.169 12.3612C100.049 12.2268 99.8978 12.1595 99.7168 12.1595H96.0064Z" fill="#302F2D"/>
</svg>
