<svg preserveAspectRatio="none" width="100%" height="100%" overflow="visible" style="display: block;" viewBox="0 0 14 17" fill="none" xmlns="http://www.w3.org/2000/svg">
<g id="Notification">
<path id="Combo shape" d="M8.81436 14.583C9.00894 14.5832 9.16679 14.7409 9.1669 14.9355C9.1669 14.9778 9.15935 15.0204 9.14346 15.0596C8.76226 15.9991 7.79716 16.666 6.6669 16.666C5.53661 16.666 4.57158 15.9991 4.19033 15.0596C4.17445 15.0204 4.1669 14.9778 4.1669 14.9355C4.167 14.7408 4.32471 14.583 4.51944 14.583H8.81436ZM6.6669 0C7.71154 7.89456e-05 8.5585 0.846936 8.5585 1.8916V1.97754C10.3438 2.58883 11.6652 4.04206 11.8661 5.8125L12.2392 9.0957C12.3063 9.68701 12.5552 10.2511 12.9599 10.7266C13.874 11.8005 13.0048 13.3328 11.4813 13.333H1.85244C0.328893 13.333 -0.540945 11.8005 0.372951 10.7266C0.777664 10.2511 1.02751 9.68706 1.09463 9.0957L1.4667 5.8125C1.66764 4.04204 2.98996 2.58881 4.7753 1.97754V1.8916C4.7753 0.846888 5.62218 0 6.6669 0Z" fill="var(--fill-0, white)"/>
</g>
</svg>
